#N canvas 827 239 527 327 12;
#X obj 183 205 hv.filter~ lowpass 3500 0.707;
#X obj 183 418 hv.filter~ highpass 25 0.707;
#X obj 173 1818 hv.filter.gain~ highshelf 2000 1;
#X obj 173 2068 dac~;
#X obj 173 1773 hv.filter~ lowpass 4000 0.707;
#X obj 183 14 adc~;
#X obj 183 594 *~;
#X obj 183 464 hv.filter.gain~ peak 600 0.707;
#X obj 173 1621 *~;
#X obj 219 1621 *~;
#X obj 1178 585 *~;
#X obj 173 1691 *~ 0.5;
#X obj 429 185 r Bass @hv_param 0 1 0;
#X obj 256 327 * 275;
#X obj 256 355 + 25;
#X obj 397 383 * 1400;
#X obj 397 411 + 600;
#X obj 563 355 r Hump @hv_param 0 1 0;
#X obj 397 355 r Voice @hv_param 0 1 0;
#X obj 563 383 * 8;
#X obj 895 355 r Gain @hv_param 0 1 0;
#X obj 1211 538 * 1000;
#X obj 298 1441 r Clipping @hv_param 0 1 0;
#X obj 418 1662 r Tone @hv_param 0 1 0;
#X obj 173 2030 *~;
#X obj 497 1791 r Level @hv_param 0 1 0;
#X obj 418 1723 - 24;
#X obj 418 1691 * 36;
#X obj 222 274 loadbang;
#X obj 222 300 f 0;
#X obj 328 327 loadbang;
#X obj 328 353 f 0;
#X obj 736 355 loadbang;
#X obj 736 381 f 0;
#X obj 699 450 loadbang;
#X obj 699 476 f 0.5;
#X obj 476 1441 loadbang;
#X obj 605 1639 loadbang;
#X obj 605 1665 f 0.5;
#X obj 215 1871 loadbang;
#X obj 476 1467 f 1;
#X obj 1211 416 loadbang;
#X obj 1211 442 f 0.5;
#X obj 215 1897 f 0.25;
#X obj 215 1548 != 1;
#X obj 1710 457 r Diode_pos @hv_param 0 1 0;
#X obj 1417 460 r Diode_neg @hv_param 0 1 0;
#X obj 1710 517 f;
#X obj 1710 549 +;
#X obj 1754 517 f;
#X obj 1710 486 t f f b;
#X text 1710 399 all off = 3 \; 1 on = 2 \; 2 on = 1;
#X obj 1709 647 -;
#X obj 1710 578 t b f;
#X obj 1683 616 f 3;
#X text 1482 490 homebrew counter;
#X text 1473 583 scale 0 - 2 ---> 3 - 1;
#X obj 1417 524 f;
#X obj 1417 556 +;
#X obj 1461 524 f;
#X obj 1417 493 t f f b;
#X obj 1416 654 -;
#X obj 1417 585 t b f;
#X text 1417 399 all off = -3 \; 1 on = -2 \; 2 on = -1;
#X obj 1395 616 f 3;
#X obj 1416 687 * -1;
#X text 1758 579 scale 0 - 2 ---> -3 - -1;
#X text 1264 763 hard clipping \; variable positive and negative thresholds \; to allow for different diode configurations \;;
#X obj 247 682 hv.lt~;
#X obj 267 648 sig~ 0;
#X obj 183 733 *~;
#X obj 163 774 pow~;
#X obj 163 826 +~ -1;
#X obj 507 648 sig~ 0;
#X obj 419 736 *~;
#X obj 399 801 pow~;
#X obj 364 733 exp~ 1;
#X obj 483 685 hv.gt~;
#X obj 419 767 *~ -1;
#X obj 333 801 sig~ 1;
#X obj 388 839 -~;
#X obj 708 648 sig~ 0;
#X obj 617 740 *~;
#X obj 681 689 hv.eq~;
#X obj 573 702 sig~ 0;
#X obj 104 702 sig~ 1;
#X obj 104 733 exp~;
#X obj 364 702 sig~ 1;
#X obj 215 1936 sig~;
#X obj 257 1021 hv.lt~;
#X obj 277 987 sig~ 0;
#X obj 193 1072 *~;
#X obj 173 1113 pow~;
#X obj 173 1165 +~ -1;
#X obj 517 987 sig~ 0;
#X obj 429 1075 *~;
#X obj 409 1140 pow~;
#X obj 374 1072 exp~ 1;
#X obj 493 1024 hv.gt~;
#X obj 429 1106 *~ -1;
#X obj 343 1140 sig~ 1;
#X obj 398 1178 -~;
#X obj 718 987 sig~ 0;
#X obj 627 1079 *~;
#X obj 691 1028 hv.eq~;
#X obj 583 1041 sig~ 0;
#X obj 114 1041 sig~ 1;
#X obj 114 1072 exp~;
#X obj 374 1041 sig~ 1;
#X obj 163 936 *~ -1;
#X obj 699 511 * 200;
#X obj 839 450 + 0.05;
#X obj 895 450 + 0.1;
#X obj 1178 766 clip~ -3 2;
#X obj 174 1658 *~ 2;
#X obj 219 1658 *~ 0.5;
#X text 727 751 soft clipping \; algorithm from Baltic Lab with thanks;
#X text 836 821 0 for x = 0;
#X text 801 842 1 - e^-x for x > 0;
#X text 798 799 -1 + e^x for x < 0;
#X text 727 821 f(x) =;
#X obj 386 240 f 1;
#X obj 429 274 -;
#X obj 429 215 t b f;
#X obj 347 1890 hv.lte~;
#X obj 374 1862 sig~ 0.5;
#X obj 313 1922 *~;
#X obj 313 1958 *~ 2;
#X obj 532 1837 sig~ 0.5;
#X obj 487 1899 *~;
#X obj 508 1869 hv.gt~;
#X obj 565 1959 sig~ 1;
#X obj 487 2024 *~;
#X obj 534 1993 hv.gte~;
#X obj 487 1930 *~ 10;
#X obj 487 1959 -~ 4;
#X text 634 1854 Level and gain scaling \; 0 - 0.5 on the VST-side slider \; goes from 0 - 1 \; 0.5 - 1 on the VST-side scales \; 1-6 for a volume boost! \; \; this means noon on the slider \; is at 1 gain for a nice UI experience;
#X text 83 1657 gain scaling;
#X text 74 1817 treble control;
#X text 74 1772 some filtering;
#X text 298 1407 channel control;
#X text 59 463 Mid boost control \; 600 - 2000hz \; 0 - 8 boost!;
#X text 59 417 Bass control;
#X obj 183 97 hv.filter~ lowpass 12000 0.707;
#X obj 183 133 hv.filter~ lowpass 12000 0.707;
#X obj 405 44 loadbang;
#X obj 405 72 samplerate~;
#X obj 405 103 / 4;
#X text 59 98 Somewhat crude \; anti-aliasing filter;
#X text 53 200 Make it sound like \; a guitar;
#X connect 0 0 1 0;
#X connect 1 0 7 0;
#X connect 2 0 24 0;
#X connect 4 0 2 0;
#X connect 5 0 143 0;
#X connect 6 0 70 0;
#X connect 6 0 74 0 48.................S....zI...vD....cB...LA....6....S....vN...vd....;
#X connect 6 0 77 0 48.................R....XI...fD....VB...LA....KA...S....vR....R....;
#X connect 6 0 68 0 32.................S.....D...vD.....A...TD....;
#X connect 6 0 83 0 48.................R....7Y...fD....eF...HA...f7A...R....He....S....;
#X connect 7 0 10 0 48.................HA...LG....R....yA...jD...v3C...IA...L9...fY....;
#X connect 7 0 6 0;
#X connect 8 0 114 0;
#X connect 9 0 115 0;
#X connect 10 0 113 0;
#X connect 11 0 4 0;
#X connect 12 0 123 0;
#X connect 13 0 14 0;
#X connect 14 0 1 1;
#X connect 15 0 16 0;
#X connect 16 0 7 1;
#X connect 17 0 19 0;
#X connect 18 0 15 0;
#X connect 19 0 7 3;
#X connect 20 0 111 0;
#X connect 20 0 112 0;
#X connect 21 0 10 1;
#X connect 22 0 44 0;
#X connect 22 0 9 1;
#X connect 23 0 27 0;
#X connect 24 0 3 0;
#X connect 24 0 3 1;
#X connect 25 0 124 0;
#X connect 25 0 126 0;
#X connect 25 0 130 0;
#X connect 25 0 129 0;
#X connect 26 0 2 3;
#X connect 27 0 26 0;
#X connect 28 0 29 0;
#X connect 29 0 13 0;
#X connect 30 0 31 0;
#X connect 31 0 15 0;
#X connect 32 0 33 0;
#X connect 33 0 19 0;
#X connect 34 0 35 0;
#X connect 35 0 110 0;
#X connect 36 0 40 0;
#X connect 37 0 38 0;
#X connect 38 0 27 0;
#X connect 39 0 43 0;
#X connect 40 0 8 1;
#X connect 41 0 42 0;
#X connect 42 0 21 0;
#X connect 43 0 88 0;
#X connect 44 0 8 1;
#X connect 45 0 50 0;
#X connect 46 0 60 0;
#X connect 47 0 48 0;
#X connect 48 0 53 0;
#X connect 49 0 48 1;
#X connect 50 0 49 1;
#X connect 50 1 47 0;
#X connect 50 2 49 0;
#X connect 52 0 113 2;
#X connect 53 0 54 0;
#X connect 53 1 52 1;
#X connect 54 0 52 0;
#X connect 57 0 58 0;
#X connect 58 0 62 0;
#X connect 59 0 58 1;
#X connect 60 0 59 1;
#X connect 60 1 57 0;
#X connect 60 2 59 0;
#X connect 61 0 65 0;
#X connect 62 0 64 0;
#X connect 62 1 61 1;
#X connect 64 0 61 0;
#X connect 65 0 113 1;
#X connect 68 0 70 1;
#X connect 69 0 68 1;
#X connect 70 0 71 1;
#X connect 71 0 72 0;
#X connect 72 0 109 0;
#X connect 73 0 77 1;
#X connect 74 0 78 0;
#X connect 75 0 80 1;
#X connect 76 0 75 0;
#X connect 77 0 74 1;
#X connect 78 0 75 1;
#X connect 79 0 80 0;
#X connect 80 0 109 0 32.................7.....x+++OO....f7+++6D....;
#X connect 81 0 83 1;
#X connect 82 0 109 0 48.................bB...7v+++Om....O7+++CJ...vN9+++fB...ri+++er....;
#X connect 83 0 82 1;
#X connect 84 0 82 0;
#X connect 85 0 86 0;
#X connect 86 0 71 0;
#X connect 87 0 76 0;
#X connect 88 0 24 1;
#X connect 89 0 91 1;
#X connect 90 0 89 1;
#X connect 91 0 92 1;
#X connect 92 0 93 0;
#X connect 93 0 8 0 32.................aC........v1.........Ta....;
#X connect 94 0 98 1;
#X connect 95 0 99 0;
#X connect 96 0 101 1;
#X connect 97 0 96 0;
#X connect 98 0 95 1;
#X connect 99 0 96 1;
#X connect 100 0 101 0;
#X connect 101 0 8 0 32.................eB....x++++m....f7+++iZ....;
#X connect 102 0 104 1;
#X connect 103 0 8 0 32.................AD...ri+++e.A...63+++uf....;
#X connect 104 0 103 1;
#X connect 105 0 103 0;
#X connect 106 0 107 0;
#X connect 107 0 92 0;
#X connect 108 0 97 0;
#X connect 109 0 91 0;
#X connect 109 0 95 0 48.................S....zI...vD....cB...LA....6....S....vN...vd....;
#X connect 109 0 98 0 48.................R....XI...fD....VB...LA....KA...S....vR....R....;
#X connect 109 0 89 0 32.................S.....D...vD.....A...TD....;
#X connect 109 0 104 0 48.................R....7Y...fD....eF...HA...f7A...R....He....S....;
#X connect 110 0 6 1;
#X connect 111 0 110 0;
#X connect 112 0 21 0;
#X connect 113 0 9 0 32.................lL...fC+++uIC...3v+++Oz....;
#X connect 114 0 11 0;
#X connect 115 0 11 0;
#X connect 121 0 122 0;
#X connect 122 0 13 0;
#X connect 123 0 121 0;
#X connect 123 1 122 1;
#X connect 124 0 126 1;
#X connect 125 0 124 1;
#X connect 126 0 127 0;
#X connect 127 0 24 1;
#X connect 128 0 130 1;
#X connect 129 0 134 0;
#X connect 130 0 129 1;
#X connect 131 0 133 1;
#X connect 132 0 24 1;
#X connect 133 0 132 1;
#X connect 134 0 135 0;
#X connect 135 0 132 0;
#X connect 135 0 133 0;
#X connect 143 0 144 0;
#X connect 144 0 0 0;
#X connect 145 0 146 0;
#X connect 146 0 147 0;
#X connect 147 0 143 1;
#X connect 147 0 144 1;
